<?xml version="1.0" encoding="utf-8"?>
<!-- Generator: Adobe Illustrator 23.0.1, SVG Export Plug-In . SVG Version: 6.00 Build 0)  -->
<svg version="1.1" id="Layer_1" xmlns="http://www.w3.org/2000/svg" xmlns:xlink="http://www.w3.org/1999/xlink" x="0px" y="0px"
	 viewBox="0 0 480 139" style="enable-background:new 0 0 480 139;" xml:space="preserve">
<style type="text/css">
	.st0{fill:none;}
	.st1{fill:#7D73B5;}
	.st2{clip-path:url(#SVGID_2_);fill:#7D73B5;}
	.st3{clip-path:url(#SVGID_4_);fill:#7D73B5;}
	.st4{fill:#4951A0;}
	.st5{fill:#49509C;}
	.st6{fill:#4A509A;}
</style>
<path class="st0" d="M-1,139h479.9l0,0H-1L-1,139z"/>
<path class="st0" d="M382.4,116.4L430,31.2l8.4-15 M369.8,139L369.8,139l-7.8,14"/>
<path class="st0" d="M457-17l-8.9,16l-9.6,17.2l-8.4,15L369.9,139l0,0l-8.9,16"/>
<rect x="-0.4" y="-1" class="st0" width="480.9" height="141"/>
<g transform="translate(82.26168060302601,286.60221920775865)translate(167.34375,31.5)rotate(0)translate(-167.34375,-31.5)">
	<path class="st1" d="M62.9-234.2H56v13.4h-4.3v-34.1h10.9l0,0c3.2,0,5.7,1,7.5,2.9l0,0l0,0c1.8,1.9,2.7,4.4,2.7,7.6l0,0l0,0
		c0,3.3-0.9,5.8-2.6,7.6l0,0l0,0C68.5-235.2,66.1-234.3,62.9-234.2L62.9-234.2z M56-251.3v13.4h6.6l0,0c1.9,0,3.4-0.6,4.4-1.7l0,0
		l0,0c1-1.1,1.5-2.8,1.5-4.9l0,0l0,0c0-2-0.5-3.7-1.6-4.9l0,0l0,0c-1-1.2-2.5-1.9-4.3-1.9l0,0L56-251.3L56-251.3z M94.7-240.3v3.7
		H82.6v12.1h14.1v3.7H78.4v-34.1h18.1v3.7H82.7v11h12V-240.3z M109.8-220.9h-7.6V-255h8.1l0,0c4,0,7.1,1.2,9.3,3.7l0,0l0,0
		c2.2,2.5,3.3,6,3.3,10.5l0,0v5.7l0,0c0,4.5-1.1,8-3.4,10.5l0,0l0,0C117.3-222.1,114.1-220.9,109.8-220.9L109.8-220.9z M110.3-251.3
		h-3.8v26.7h3.4l0,0c3,0,5.2-0.9,6.6-2.6l0,0l0,0c1.4-1.7,2.1-4.3,2.1-7.7l0,0v-6l0,0c0-3.6-0.7-6.2-2.1-7.9l0,0l0,0
		C115.2-250.5,113.1-251.3,110.3-251.3L110.3-251.3z M146-220.9l-6.1-13.8h-6v13.8h-4.3V-255h9.6l0,0c3.3,0,5.9,0.9,7.6,2.6l0,0l0,0
		c1.7,1.7,2.6,4.3,2.6,7.6l0,0l0,0c0,2.1-0.5,3.9-1.4,5.5l0,0l0,0c-0.9,1.6-2.2,2.8-3.9,3.6l0,0l6.6,14.5v0.3L146-220.9L146-220.9z
		 M133.9-251.3v12.9h5.2l0,0c1.8,0,3.2-0.6,4.3-1.7l0,0l0,0c1.1-1.2,1.6-2.7,1.6-4.6l0,0l0,0c0-4.4-2-6.6-6-6.6l0,0L133.9-251.3
		L133.9-251.3z M177.3-241.1v6.2l0,0c0,4.7-1,8.2-3,10.8l0,0l0,0c-2,2.5-4.8,3.8-8.5,3.8l0,0l0,0c-3.5,0-6.3-1.2-8.3-3.7l0,0l0,0
		c-2-2.4-3.1-5.9-3.2-10.4l0,0v-6.4l0,0c0-4.6,1-8.1,3-10.7l0,0l0,0c2-2.6,4.8-3.9,8.4-3.9l0,0l0,0c3.6,0,6.4,1.2,8.4,3.7l0,0l0,0
		C176.2-249.3,177.2-245.7,177.3-241.1L177.3-241.1z M173-234.5v-6.4l0,0c0-3.6-0.6-6.3-1.8-8l0,0l0,0c-1.2-1.8-3-2.6-5.4-2.6l0,0
		l0,0c-2.4,0-4.1,0.9-5.3,2.7l0,0l0,0c-1.2,1.8-1.8,4.4-1.8,7.9l0,0v6.1l0,0c0,3.5,0.6,6.1,1.8,8l0,0l0,0c1.2,1.8,3,2.7,5.4,2.7l0,0
		l0,0c2.4,0,4.2-0.8,5.3-2.5l0,0l0,0C172.3-228.4,172.9-231,173-234.5L173-234.5z M194.9-255h5.5l8.9,27.9l8.9-27.9h5.5v34.1h-4.3
		v-13.3l0.4-13.3l-8.9,26.6h-3.3l-8.8-26.5l0.4,13.2v13.3h-4.3L194.9-255L194.9-255z M249.7-220.9l-2.7-8.9h-11.5l-2.6,8.9h-4.4
		l11-34.1h3.7l11,34.1H249.7z M241.3-249l-4.6,15.5h9.3L241.3-249z M275.2-220.9l-6.1-13.8h-6v13.8h-4.3V-255h9.6l0,0
		c3.3,0,5.9,0.9,7.6,2.6l0,0l0,0c1.7,1.7,2.6,4.3,2.6,7.6l0,0l0,0c0,2.1-0.5,3.9-1.4,5.5l0,0l0,0c-0.9,1.6-2.3,2.8-4,3.6l0,0
		l6.6,14.5v0.3L275.2-220.9L275.2-220.9z M263.1-251.3v12.9h5.2l0,0c1.8,0,3.2-0.6,4.3-1.7l0,0l0,0c1.1-1.2,1.6-2.7,1.6-4.6l0,0l0,0
		c0-4.4-2-6.6-5.9-6.6l0,0L263.1-251.3L263.1-251.3z M304.2-255v3.7h-9v30.4h-4.3v-30.4h-9v-3.7H304.2z M313.7-255v34.1h-4.3V-255
		H313.7z M343.5-255v34.1h-4.3l-13.7-26.3v26.3h-4.3V-255h4.3l13.7,26.4V-255H343.5L343.5-255z M365.9-229.5L365.9-229.5
		L365.9-229.5c0-1.7-0.5-3-1.4-3.9l0,0l0,0c-0.9-0.9-2.6-1.8-5-2.7l0,0l0,0c-2.4-0.9-4.2-1.8-5.5-2.7l0,0l0,0
		c-1.3-0.9-2.2-2-2.9-3.2l0,0l0,0c-0.6-1.2-1-2.6-1-4.2l0,0l0,0c0-2.7,0.9-4.9,2.7-6.7l0,0l0,0c1.8-1.7,4.2-2.6,7.1-2.6l0,0l0,0
		c2,0,3.8,0.4,5.3,1.3l0,0l0,0c1.6,0.9,2.8,2.1,3.6,3.7l0,0l0,0c0.8,1.6,1.3,3.3,1.3,5.3l0,0h-4.3l0,0c0-2.1-0.5-3.7-1.5-4.9l0,0
		l0,0c-1-1.2-2.5-1.7-4.4-1.7l0,0l0,0c-1.7,0-3.1,0.5-4,1.5l0,0l0,0c-1,1-1.4,2.3-1.4,4.1l0,0l0,0c0,1.4,0.5,2.6,1.5,3.6l0,0l0,0
		c1,1,2.6,1.8,4.8,2.6l0,0l0,0c3.4,1.1,5.8,2.5,7.2,4.1l0,0l0,0c1.4,1.6,2.2,3.8,2.2,6.4l0,0l0,0c0,2.8-0.9,5-2.7,6.6l0,0l0,0
		c-1.8,1.7-4.2,2.5-7.3,2.5l0,0l0,0c-2,0-3.8-0.4-5.5-1.3l0,0l0,0c-1.7-0.9-3-2.1-4-3.7l0,0l0,0c-1-1.6-1.4-3.4-1.4-5.4l0,0h4.3l0,0
		c0,2.1,0.6,3.7,1.8,4.9l0,0l0,0c1.2,1.2,2.8,1.8,4.8,1.8l0,0l0,0c1.9,0,3.3-0.5,4.3-1.4l0,0l0,0
		C365.4-226.5,365.9-227.8,365.9-229.5z"/>
</g>
<g transform="translate(88.5,341)translate(162.25000000000003,2.2499999999999987)rotate(0)translate(-162.25000000000003,-2.2499999999999987) scale(1,1)">
	<g>
		<g>
			<g>
				<defs>
					<rect id="SVGID_1_" x="42.3" y="-259.3" width="324.5" height="4.5"/>
				</defs>
				<use xlink:href="#SVGID_1_"  style="overflow:visible;fill:#7D73B5;"/>
				<clipPath id="SVGID_2_">
					<use xlink:href="#SVGID_1_"  style="overflow:visible;"/>
				</clipPath>
				<rect x="42.3" y="-259.3" class="st2" width="324.5" height="4.5"/>
			</g>
		</g>
	</g>
	<g>
		<g>
			<g>
				<defs>
					<rect id="SVGID_3_" x="42.3" y="-259.3" width="324.5" height="4.5"/>
				</defs>
				<use xlink:href="#SVGID_3_"  style="overflow:visible;fill:#7D73B5;"/>
				<clipPath id="SVGID_4_">
					<use xlink:href="#SVGID_3_"  style="overflow:visible;"/>
				</clipPath>
				<rect x="42.3" y="-259.3" class="st3" width="324.5" height="4.5"/>
			</g>
		</g>
	</g>
</g>
<g transform="translate(88.86793060302598,354)translate(160.7375,14.5)rotate(0)translate(-160.7375,-14.5)">
	<path class="st1" d="M56.6-244.4L56.6-244.4L56.6-244.4c0-0.8-0.2-1.4-0.6-1.8l0,0l0,0c-0.4-0.4-1.2-0.8-2.3-1.2l0,0l0,0
		c-1.1-0.4-1.9-0.8-2.5-1.2l0,0l0,0c-0.6-0.4-1-0.9-1.3-1.5l0,0l0,0c-0.3-0.6-0.4-1.2-0.4-1.9l0,0l0,0c0-1.2,0.4-2.3,1.2-3.1l0,0
		l0,0c0.8-0.8,1.9-1.2,3.3-1.2l0,0l0,0c0.9,0,1.7,0.2,2.5,0.6l0,0l0,0c0.7,0.4,1.3,1,1.7,1.7l0,0l0,0c0.4,0.7,0.6,1.5,0.6,2.4l0,0
		h-2l0,0c0-1-0.2-1.7-0.7-2.2l0,0l0,0c-0.5-0.5-1.1-0.8-2-0.8l0,0l0,0c-0.8,0-1.4,0.2-1.8,0.7l0,0l0,0c-0.4,0.4-0.7,1.1-0.7,1.9l0,0
		l0,0c0,0.7,0.2,1.2,0.7,1.6l0,0l0,0c0.5,0.4,1.2,0.8,2.2,1.2l0,0l0,0c1.5,0.5,2.6,1.1,3.3,1.9l0,0l0,0c0.7,0.7,1,1.7,1,2.9l0,0l0,0
		c0,1.3-0.4,2.3-1.2,3l0,0l0,0c-0.8,0.8-1.9,1.1-3.4,1.1l0,0l0,0c-0.9,0-1.8-0.2-2.5-0.6l0,0l0,0c-0.8-0.4-1.4-1-1.8-1.7l0,0l0,0
		c-0.4-0.7-0.7-1.5-0.7-2.5l0,0h2l0,0c0,1,0.3,1.7,0.8,2.3l0,0l0,0c0.5,0.5,1.3,0.8,2.2,0.8l0,0l0,0c0.9,0,1.5-0.2,1.9-0.7l0,0l0,0
		C56.4-243.1,56.6-243.7,56.6-244.4z M75.8-249.8v2.8l0,0c0,2.1-0.5,3.8-1.4,4.9l0,0l0,0c-0.9,1.1-2.2,1.7-3.9,1.7l0,0l0,0
		c-1.6,0-2.9-0.6-3.8-1.7l0,0l0,0c-0.9-1.1-1.4-2.7-1.5-4.8l0,0v-2.9l0,0c0-2.1,0.5-3.7,1.4-4.9l0,0l0,0c0.9-1.2,2.2-1.8,3.9-1.8
		l0,0l0,0c1.6,0,2.9,0.6,3.9,1.7l0,0l0,0C75.3-253.5,75.7-251.9,75.8-249.8L75.8-249.8z M73.8-246.7v-2.9l0,0c0-1.7-0.3-2.9-0.8-3.7
		l0,0l0,0c-0.5-0.8-1.4-1.2-2.5-1.2l0,0l0,0c-1.1,0-1.9,0.4-2.4,1.2l0,0l0,0c-0.6,0.8-0.8,2-0.8,3.6l0,0v2.8l0,0
		c0,1.6,0.3,2.8,0.8,3.7l0,0l0,0c0.6,0.8,1.4,1.3,2.5,1.3l0,0l0,0c1.1,0,1.9-0.4,2.5-1.2l0,0l0,0C73.5-244,73.8-245.2,73.8-246.7
		L73.8-246.7z M90.5-249.1v1.7h-5.3v6.9h-2v-15.6h8.1v1.7h-6.2v5.4L90.5-249.1L90.5-249.1z M107.3-256.1v1.7h-4.1v13.9h-2v-13.9
		h-4.1v-1.7H107.3z M115.1-256.1l1.9,10.7l0.2,1.8l0.3-1.6l2.5-10.9h1.7l2.4,10.9l0.3,1.6l0.2-1.8l1.9-10.7h2l-3.1,15.6h-1.8
		l-2.6-11.4l-0.2-0.9l-0.2,0.9l-2.6,11.4h-1.8l-3.1-15.6H115.1z M143.7-240.5l-1.2-4.1h-5.3l-1.2,4.1h-2l5-15.6h1.7l5,15.6H143.7z
		 M139.8-253.4l-2.1,7.1h4.3L139.8-253.4z M159.8-240.5l-2.8-6.3h-2.8v6.3h-2v-15.6h4.4l0,0c1.5,0,2.7,0.4,3.5,1.2l0,0l0,0
		c0.8,0.8,1.2,2,1.2,3.5l0,0l0,0c0,1-0.2,1.8-0.6,2.5l0,0l0,0c-0.4,0.7-1,1.3-1.8,1.6l0,0l3,6.6v0.1L159.8-240.5L159.8-240.5z
		 M154.2-254.4v5.9h2.4l0,0c0.8,0,1.5-0.3,2-0.8l0,0l0,0c0.5-0.5,0.7-1.2,0.7-2.1l0,0l0,0c0-2-0.9-3-2.7-3l0,0L154.2-254.4
		L154.2-254.4z M175.8-249.4v1.7h-5.5v5.5h6.4v1.7h-8.4v-15.6h8.3v1.7h-6.3v5L175.8-249.4L175.8-249.4z M200.6-249.4v1.7h-5.5v5.5
		h6.4v1.7h-8.4v-15.6h8.3v1.7h-6.3v5L200.6-249.4L200.6-249.4z M218.6-256.1v15.6h-2l-6.3-12.1v12.1h-2v-15.6h2l6.3,12.1v-12.1
		H218.6z M236.2-248.3v5.9l-0.3,0.4l0,0c-1,1.1-2.4,1.7-4.3,1.7l0,0l0,0c-1.7,0-3-0.6-4-1.7l0,0l0,0c-1-1.1-1.5-2.7-1.5-4.8l0,0
		v-3.1l0,0c0-2.2,0.4-3.8,1.3-4.9l0,0l0,0c0.9-1.1,2.2-1.6,3.9-1.6l0,0l0,0c1.5,0,2.6,0.4,3.5,1.3l0,0l0,0c0.8,0.8,1.3,2,1.4,3.6
		l0,0h-2l0,0c-0.1-1-0.4-1.7-0.8-2.3l0,0l0,0c-0.5-0.5-1.2-0.8-2.1-0.8l0,0l0,0c-1.1,0-1.9,0.4-2.5,1.1l0,0l0,0
		c-0.5,0.7-0.8,1.9-0.8,3.5l0,0v3.2l0,0c0,1.6,0.3,2.8,0.9,3.6l0,0l0,0c0.6,0.8,1.5,1.3,2.6,1.3l0,0l0,0c1.1,0,1.9-0.3,2.4-0.8l0,0
		l0.3-0.3v-3.6h-2.9v-1.7L236.2-248.3L236.2-248.3z M245.9-256.1v15.6h-2v-15.6H245.9z M264-256.1v15.6h-2l-6.3-12.1v12.1h-2v-15.6
		h2L262-244v-12.1H264z M279.3-249.4v1.7h-5.5v5.5h6.5v1.7h-8.4v-15.6h8.3v1.7h-6.3v5L279.3-249.4L279.3-249.4z M294.6-249.4v1.7
		h-5.5v5.5h6.4v1.7h-8.4v-15.6h8.3v1.7h-6.3v5L294.6-249.4L294.6-249.4z M309.9-240.5l-2.8-6.3h-2.8v6.3h-2v-15.6h4.4l0,0
		c1.5,0,2.7,0.4,3.5,1.2l0,0l0,0c0.8,0.8,1.2,2,1.2,3.5l0,0l0,0c0,1-0.2,1.8-0.6,2.5l0,0l0,0c-0.4,0.7-1,1.3-1.8,1.6l0,0l3,6.6v0.1
		L309.9-240.5L309.9-240.5z M304.4-254.4v5.9h2.4l0,0c0.8,0,1.5-0.3,2-0.8l0,0l0,0c0.5-0.5,0.7-1.2,0.7-2.1l0,0l0,0c0-2-0.9-3-2.7-3
		l0,0L304.4-254.4L304.4-254.4z M320.5-256.1v15.6h-2v-15.6H320.5z M338.6-256.1v15.6h-2l-6.3-12.1v12.1h-2v-15.6h2l6.3,12.1v-12.1
		H338.6z M356.2-248.3v5.9l-0.3,0.4l0,0c-1,1.1-2.4,1.7-4.3,1.7l0,0l0,0c-1.7,0-3-0.6-4-1.7l0,0l0,0c-1-1.1-1.5-2.7-1.5-4.8l0,0
		v-3.1l0,0c0-2.2,0.4-3.8,1.3-4.9l0,0l0,0c0.9-1.1,2.2-1.6,3.9-1.6l0,0l0,0c1.5,0,2.7,0.4,3.5,1.3l0,0l0,0c0.8,0.8,1.3,2,1.4,3.6
		l0,0h-2l0,0c-0.1-1-0.3-1.7-0.8-2.3l0,0l0,0c-0.5-0.5-1.2-0.8-2.1-0.8l0,0l0,0c-1.1,0-1.9,0.4-2.5,1.1l0,0l0,0
		c-0.5,0.7-0.8,1.9-0.8,3.5l0,0v3.2l0,0c0,1.6,0.3,2.8,0.9,3.6l0,0l0,0c0.6,0.8,1.5,1.3,2.6,1.3l0,0l0,0c1.1,0,1.9-0.3,2.4-0.8l0,0
		l0.3-0.3v-3.6h-2.9v-1.7L356.2-248.3L356.2-248.3z"/>
</g>
<path class="st1" d="M31.5,22.1c5.6,0,10.9,0.3,16.1-0.1c3.3-0.2,5.1,1,6.9,4c17,28.3,34.1,56.5,51.2,84.7c0.3,0.5,0.6,1,1,1.7
	c-0.6,0-1,0.1-1.4,0.1c-5.9,0-11.8,0-17.7,0c-0.9,0-1.5-0.3-2-1.2c-5.1-8.5-10.3-17-15.4-25.4c-0.3-0.5-0.6-0.9-1-1.5
	c-0.3,0.5-0.6,0.9-0.9,1.4c-5.2,8.6-10.4,17.1-15.6,25.7c-0.3,0.5-1,1.1-1.6,1.1c-6.2,0.1-12.4,0-18.6,0c-0.2,0-0.4,0-0.9-0.1
	c0.4-0.6,0.6-1.1,0.9-1.6c8.5-14.1,17-28.1,25.6-42.2c0.6-1,0.6-1.7,0-2.8c-8.6-14-17.1-28.1-25.6-42.2
	C32.1,23.3,31.9,22.8,31.5,22.1z"/>
<path class="st4" d="M4.1,112.4c0.3-0.6,0.6-1.1,0.9-1.6c8.5-14,16.9-28,25.4-41.9c0.8-1.3,0.7-2-0.1-3.3c-8.5-14-17-28-25.5-42
	c-0.2-0.4-0.5-0.8-0.8-1.4c0.6,0,1-0.1,1.5-0.1c5.9,0,11.7,0,17.6,0c1,0,1.6,0.3,2.1,1.2c8.7,14.2,17.3,28.5,26,42.7
	c0.5,0.9,0.6,1.5,0,2.4c-8.7,14.3-17.3,28.6-26,42.9c-0.3,0.5-1,1.1-1.6,1.1c-6.2,0.1-12.5,0-18.7,0C4.7,112.5,4.5,112.4,4.1,112.4z
	"/>
<path class="st5" d="M74.8,35.4c15.3,0,30.4,0,45.6,0c0,1.4,0,2.8,0,4.2c0,3.1,0,6.3,0,9.4c0,1-0.2,1.4-1.2,1.4
	c-11.5,0-22.9,0-34.4-0.1c-0.5,0-1.1-0.3-1.4-0.7C80.7,45,77.8,40.3,74.8,35.4z"/>
<path class="st6" d="M88.7,71.1c0.6,0,1.1-0.1,1.5-0.1c9.6,0,19.2,0,28.7,0c1.1,0,1.5,0.3,1.5,1.6c-0.1,4.4,0,8.9,0,13.4
	c-0.5,0-1,0.1-1.4,0.1c-6.7,0-13.5,0-20.2,0c-0.9,0-1.5-0.3-2-1.2c-2.4-4.2-4.9-8.3-7.4-12.4C89.3,72.1,89.1,71.7,88.7,71.1z"/>
</svg>
