<?xml version="1.0" encoding="utf-8"?>
<!-- Generator: Adobe Illustrator 23.0.1, SVG Export Plug-In . SVG Version: 6.00 Build 0)  -->
<svg version="1.1" id="Layer_1" xmlns="http://www.w3.org/2000/svg" xmlns:xlink="http://www.w3.org/1999/xlink" x="0px" y="0px"
	 viewBox="0 0 480 139" style="enable-background:new 0 0 480 139;" xml:space="preserve">
<style type="text/css">
	.st0{fill:#0B0C10;}
	.st1{fill:none;}
	.st2{fill:#FFFFFF;}
	.st3{clip-path:url(#SVGID_2_);fill:#FFFFFF;}
	.st4{clip-path:url(#SVGID_4_);fill:none;}
	.st5{fill:url(#SVGID_5_);}
	.st6{fill:#161515;}
</style>
<path class="st0" d="M448.1-1l-9.6,17.2l-8.4,15L369.9,139H-1V-1H448.1z"/>
<path class="st1" d="M-1,139h479.9l0,0H-1L-1,139z"/>
<path class="st1" d="M382.4,116.4L430,31.2l8.4-15 M369.8,139L369.8,139l-7.8,14"/>
<path class="st1" d="M457-17l-8.9,16l-9.6,17.2l-8.4,15L369.9,139l0,0l-8.9,16"/>
<g transform="translate(82.26168060302601,286.60221920775865)translate(167.34375,31.5)rotate(0)translate(-167.34375,-31.5)">
	<path class="st2" d="M-62.1-249.8H-69v13.4h-4.3v-34.1h10.9l0,0c3.2,0,5.7,1,7.5,2.9l0,0l0,0c1.8,1.9,2.7,4.4,2.7,7.6l0,0l0,0
		c0,3.3-0.9,5.8-2.6,7.6l0,0l0,0C-56.5-250.8-58.9-249.9-62.1-249.8L-62.1-249.8z M-69-266.9v13.4h6.6l0,0c1.9,0,3.4-0.6,4.4-1.7
		l0,0l0,0c1-1.1,1.5-2.8,1.5-4.9l0,0l0,0c0-2-0.5-3.7-1.6-4.9l0,0l0,0c-1-1.2-2.5-1.9-4.3-1.9l0,0H-69z M-30.3-255.9v3.7h-12.1v12.1
		h14.1v3.7h-18.3v-34.1h18.1v3.7h-13.8v11H-30.3z M-15.2-236.5h-7.6v-34.1h8.1l0,0c4,0,7.1,1.2,9.3,3.7l0,0l0,0
		c2.2,2.5,3.3,6,3.3,10.5l0,0v5.7l0,0c0,4.5-1.1,8-3.4,10.5l0,0l0,0C-7.7-237.7-10.9-236.5-15.2-236.5L-15.2-236.5z M-14.7-266.9
		h-3.8v26.7h3.4l0,0c3,0,5.2-0.9,6.6-2.6l0,0l0,0c1.4-1.7,2.1-4.3,2.1-7.7l0,0v-6l0,0c0-3.6-0.7-6.2-2.1-7.9l0,0l0,0
		C-9.8-266.1-11.9-266.9-14.7-266.9L-14.7-266.9z M21-236.5l-6.1-13.8h-6v13.8H4.6v-34.1h9.6l0,0c3.3,0,5.9,0.9,7.6,2.6l0,0l0,0
		c1.7,1.7,2.6,4.3,2.6,7.6l0,0l0,0c0,2.1-0.5,3.9-1.4,5.5l0,0l0,0c-0.9,1.6-2.2,2.8-3.9,3.6l0,0l6.6,14.5v0.3H21z M8.9-266.9v12.9
		h5.2l0,0c1.8,0,3.2-0.6,4.3-1.7l0,0l0,0c1.1-1.2,1.6-2.7,1.6-4.6l0,0l0,0c0-4.4-2-6.6-6-6.6l0,0H8.9z M52.3-256.7v6.2l0,0
		c0,4.7-1,8.2-3,10.8l0,0l0,0c-2,2.5-4.8,3.8-8.5,3.8l0,0l0,0c-3.5,0-6.3-1.2-8.3-3.7l0,0l0,0c-2-2.4-3.1-5.9-3.2-10.4l0,0v-6.4l0,0
		c0-4.6,1-8.1,3-10.7l0,0l0,0c2-2.6,4.8-3.9,8.4-3.9l0,0l0,0c3.6,0,6.4,1.2,8.4,3.7l0,0l0,0C51.2-264.9,52.2-261.3,52.3-256.7
		L52.3-256.7z M48-250.1v-6.4l0,0c0-3.6-0.6-6.3-1.8-8l0,0l0,0c-1.2-1.8-3-2.6-5.4-2.6l0,0l0,0c-2.4,0-4.1,0.9-5.3,2.7l0,0l0,0
		c-1.2,1.8-1.8,4.4-1.8,7.9l0,0v6.1l0,0c0,3.5,0.6,6.1,1.8,8l0,0l0,0c1.2,1.8,3,2.7,5.4,2.7l0,0l0,0c2.4,0,4.2-0.8,5.3-2.5l0,0l0,0
		C47.3-244,47.9-246.6,48-250.1L48-250.1z M69.9-270.6h5.5l8.9,27.9l8.9-27.9h5.5v34.1h-4.3v-13.3l0.4-13.3l-8.9,26.6h-3.3L73.8-263
		l0.4,13.2v13.3h-4.3V-270.6z M124.7-236.5l-2.7-8.9h-11.5l-2.6,8.9h-4.4l11-34.1h3.7l11,34.1H124.7z M116.3-264.6l-4.6,15.5h9.3
		L116.3-264.6z M150.2-236.5l-6.1-13.8h-6v13.8h-4.3v-34.1h9.6l0,0c3.3,0,5.9,0.9,7.6,2.6l0,0l0,0c1.7,1.7,2.6,4.3,2.6,7.6l0,0l0,0
		c0,2.1-0.5,3.9-1.4,5.5l0,0l0,0c-0.9,1.6-2.3,2.8-4,3.6l0,0l6.6,14.5v0.3H150.2z M138.1-266.9v12.9h5.2l0,0c1.8,0,3.2-0.6,4.3-1.7
		l0,0l0,0c1.1-1.2,1.6-2.7,1.6-4.6l0,0l0,0c0-4.4-2-6.6-5.9-6.6l0,0H138.1z M179.2-270.6v3.7h-9v30.4h-4.3v-30.4h-9v-3.7H179.2z
		 M188.7-270.6v34.1h-4.3v-34.1H188.7z M218.5-270.6v34.1h-4.3l-13.7-26.3v26.3h-4.3v-34.1h4.3l13.7,26.4v-26.4H218.5z M240.9-245.1
		L240.9-245.1L240.9-245.1c0-1.7-0.5-3-1.4-3.9l0,0l0,0c-0.9-0.9-2.6-1.8-5-2.7l0,0l0,0c-2.4-0.9-4.2-1.8-5.5-2.7l0,0l0,0
		c-1.3-0.9-2.2-2-2.9-3.2l0,0l0,0c-0.6-1.2-1-2.6-1-4.2l0,0l0,0c0-2.7,0.9-4.9,2.7-6.7l0,0l0,0c1.8-1.7,4.2-2.6,7.1-2.6l0,0l0,0
		c2,0,3.8,0.4,5.3,1.3l0,0l0,0c1.6,0.9,2.8,2.1,3.6,3.7l0,0l0,0c0.8,1.6,1.3,3.3,1.3,5.3l0,0h-4.3l0,0c0-2.1-0.5-3.7-1.5-4.9l0,0
		l0,0c-1-1.2-2.5-1.7-4.4-1.7l0,0l0,0c-1.7,0-3.1,0.5-4,1.5l0,0l0,0c-1,1-1.4,2.3-1.4,4.1l0,0l0,0c0,1.4,0.5,2.6,1.5,3.6l0,0l0,0
		c1,1,2.6,1.8,4.8,2.6l0,0l0,0c3.4,1.1,5.8,2.5,7.2,4.1l0,0l0,0c1.4,1.6,2.2,3.8,2.2,6.4l0,0l0,0c0,2.8-0.9,5-2.7,6.6l0,0l0,0
		c-1.8,1.7-4.2,2.5-7.3,2.5l0,0l0,0c-2,0-3.8-0.4-5.5-1.3l0,0l0,0c-1.7-0.9-3-2.1-4-3.7l0,0l0,0c-1-1.6-1.4-3.4-1.4-5.4l0,0h4.3l0,0
		c0,2.1,0.6,3.7,1.8,4.9l0,0l0,0c1.2,1.2,2.8,1.8,4.8,1.8l0,0l0,0c1.9,0,3.3-0.5,4.3-1.4l0,0l0,0
		C240.4-242.1,240.9-243.4,240.9-245.1z"/>
</g>
<g transform="translate(88.86793060302598,354)translate(160.7375,14.5)rotate(0)translate(-160.7375,-14.5)">
	<path class="st2" d="M-69.4-254.4L-69.4-254.4L-69.4-254.4c0-0.8-0.2-1.4-0.6-1.8l0,0l0,0c-0.4-0.4-1.2-0.8-2.3-1.2l0,0l0,0
		c-1.1-0.4-1.9-0.8-2.5-1.2l0,0l0,0c-0.6-0.4-1-0.9-1.3-1.5l0,0l0,0c-0.3-0.6-0.4-1.2-0.4-1.9l0,0l0,0c0-1.2,0.4-2.3,1.2-3.1l0,0
		l0,0c0.8-0.8,1.9-1.2,3.3-1.2l0,0l0,0c0.9,0,1.7,0.2,2.5,0.6l0,0l0,0c0.7,0.4,1.3,1,1.7,1.7l0,0l0,0c0.4,0.7,0.6,1.5,0.6,2.4l0,0
		h-2l0,0c0-1-0.2-1.7-0.7-2.2l0,0l0,0c-0.5-0.5-1.1-0.8-2-0.8l0,0l0,0c-0.8,0-1.4,0.2-1.8,0.7l0,0l0,0c-0.4,0.4-0.7,1.1-0.7,1.9l0,0
		l0,0c0,0.7,0.2,1.2,0.7,1.6l0,0l0,0c0.5,0.4,1.2,0.8,2.2,1.2l0,0l0,0c1.5,0.5,2.6,1.1,3.3,1.9l0,0l0,0c0.7,0.7,1,1.7,1,2.9l0,0l0,0
		c0,1.3-0.4,2.3-1.2,3l0,0l0,0c-0.8,0.8-1.9,1.1-3.4,1.1l0,0l0,0c-0.9,0-1.8-0.2-2.5-0.6l0,0l0,0c-0.8-0.4-1.4-1-1.8-1.7l0,0l0,0
		c-0.4-0.7-0.7-1.5-0.7-2.5l0,0h2l0,0c0,1,0.3,1.7,0.8,2.3l0,0l0,0c0.5,0.5,1.3,0.8,2.2,0.8l0,0l0,0c0.9,0,1.5-0.2,1.9-0.7l0,0l0,0
		C-69.6-253.1-69.4-253.7-69.4-254.4z M-50.2-259.8v2.8l0,0c0,2.1-0.5,3.8-1.4,4.9l0,0l0,0c-0.9,1.1-2.2,1.7-3.9,1.7l0,0l0,0
		c-1.6,0-2.9-0.6-3.8-1.7l0,0l0,0c-0.9-1.1-1.4-2.7-1.5-4.8l0,0v-2.9l0,0c0-2.1,0.5-3.7,1.4-4.9l0,0l0,0c0.9-1.2,2.2-1.8,3.9-1.8
		l0,0l0,0c1.6,0,2.9,0.6,3.9,1.7l0,0l0,0C-50.7-263.5-50.3-261.9-50.2-259.8L-50.2-259.8z M-52.2-256.7v-2.9l0,0
		c0-1.7-0.3-2.9-0.8-3.7l0,0l0,0c-0.5-0.8-1.4-1.2-2.5-1.2l0,0l0,0c-1.1,0-1.9,0.4-2.4,1.2l0,0l0,0c-0.6,0.8-0.8,2-0.8,3.6l0,0v2.8
		l0,0c0,1.6,0.3,2.8,0.8,3.7l0,0l0,0c0.6,0.8,1.4,1.3,2.5,1.3l0,0l0,0c1.1,0,1.9-0.4,2.5-1.2l0,0l0,0
		C-52.5-254-52.2-255.2-52.2-256.7L-52.2-256.7z M-35.5-259.1v1.7h-5.3v6.9h-2v-15.6h8.1v1.7h-6.2v5.4H-35.5z M-18.7-266.1v1.7h-4.1
		v13.9h-2v-13.9h-4.1v-1.7H-18.7z M-10.9-266.1l1.9,10.7l0.2,1.8l0.3-1.6l2.5-10.9h1.7l2.4,10.9l0.3,1.6l0.2-1.8l1.9-10.7h2
		l-3.1,15.6h-1.8L-5-261.9l-0.2-0.9l-0.2,0.9L-8-250.5h-1.8l-3.1-15.6H-10.9z M17.7-250.5l-1.2-4.1h-5.3l-1.2,4.1H8l5-15.6h1.7
		l5,15.6H17.7z M13.8-263.4l-2.1,7.1H16L13.8-263.4z M33.8-250.5l-2.8-6.3h-2.8v6.3h-2v-15.6h4.4l0,0c1.5,0,2.7,0.4,3.5,1.2l0,0l0,0
		c0.8,0.8,1.2,2,1.2,3.5l0,0l0,0c0,1-0.2,1.8-0.6,2.5l0,0l0,0c-0.4,0.7-1,1.3-1.8,1.6l0,0l3,6.6v0.1H33.8z M28.2-264.4v5.9h2.4l0,0
		c0.8,0,1.5-0.3,2-0.8l0,0l0,0c0.5-0.5,0.7-1.2,0.7-2.1l0,0l0,0c0-2-0.9-3-2.7-3l0,0H28.2z M49.8-259.4v1.7h-5.5v5.5h6.4v1.7h-8.4
		v-15.6h8.3v1.7h-6.3v5H49.8z M74.6-259.4v1.7h-5.5v5.5h6.4v1.7h-8.4v-15.6h8.3v1.7h-6.3v5H74.6z M92.6-266.1v15.6h-2l-6.3-12.1
		v12.1h-2v-15.6h2l6.3,12.1v-12.1H92.6z M110.2-258.3v5.9l-0.3,0.4l0,0c-1,1.1-2.4,1.7-4.3,1.7l0,0l0,0c-1.7,0-3-0.6-4-1.7l0,0l0,0
		c-1-1.1-1.5-2.7-1.5-4.8l0,0v-3.1l0,0c0-2.2,0.4-3.8,1.3-4.9l0,0l0,0c0.9-1.1,2.2-1.6,3.9-1.6l0,0l0,0c1.5,0,2.6,0.4,3.5,1.3l0,0
		l0,0c0.8,0.8,1.3,2,1.4,3.6l0,0h-2l0,0c-0.1-1-0.4-1.7-0.8-2.3l0,0l0,0c-0.5-0.5-1.2-0.8-2.1-0.8l0,0l0,0c-1.1,0-1.9,0.4-2.5,1.1
		l0,0l0,0c-0.5,0.7-0.8,1.9-0.8,3.5l0,0v3.2l0,0c0,1.6,0.3,2.8,0.9,3.6l0,0l0,0c0.6,0.8,1.5,1.3,2.6,1.3l0,0l0,0
		c1.1,0,1.9-0.3,2.4-0.8l0,0l0.3-0.3v-3.6h-2.9v-1.7H110.2z M119.9-266.1v15.6h-2v-15.6H119.9z M138-266.1v15.6h-2l-6.3-12.1v12.1
		h-2v-15.6h2L136-254v-12.1H138z M153.3-259.4v1.7h-5.5v5.5h6.5v1.7h-8.4v-15.6h8.3v1.7h-6.3v5H153.3z M168.6-259.4v1.7h-5.5v5.5
		h6.4v1.7h-8.4v-15.6h8.3v1.7h-6.3v5H168.6z M183.9-250.5l-2.8-6.3h-2.8v6.3h-2v-15.6h4.4l0,0c1.5,0,2.7,0.4,3.5,1.2l0,0l0,0
		c0.8,0.8,1.2,2,1.2,3.5l0,0l0,0c0,1-0.2,1.8-0.6,2.5l0,0l0,0c-0.4,0.7-1,1.3-1.8,1.6l0,0l3,6.6v0.1H183.9z M178.4-264.4v5.9h2.4
		l0,0c0.8,0,1.5-0.3,2-0.8l0,0l0,0c0.5-0.5,0.7-1.2,0.7-2.1l0,0l0,0c0-2-0.9-3-2.7-3l0,0H178.4z M194.5-266.1v15.6h-2v-15.6H194.5z
		 M212.6-266.1v15.6h-2l-6.3-12.1v12.1h-2v-15.6h2l6.3,12.1v-12.1H212.6z M230.2-258.3v5.9l-0.3,0.4l0,0c-1,1.1-2.4,1.7-4.3,1.7l0,0
		l0,0c-1.7,0-3-0.6-4-1.7l0,0l0,0c-1-1.1-1.5-2.7-1.5-4.8l0,0v-3.1l0,0c0-2.2,0.4-3.8,1.3-4.9l0,0l0,0c0.9-1.1,2.2-1.6,3.9-1.6l0,0
		l0,0c1.5,0,2.7,0.4,3.5,1.3l0,0l0,0c0.8,0.8,1.3,2,1.4,3.6l0,0h-2l0,0c-0.1-1-0.3-1.7-0.8-2.3l0,0l0,0c-0.5-0.5-1.2-0.8-2.1-0.8
		l0,0l0,0c-1.1,0-1.9,0.4-2.5,1.1l0,0l0,0c-0.5,0.7-0.8,1.9-0.8,3.5l0,0v3.2l0,0c0,1.6,0.3,2.8,0.9,3.6l0,0l0,0
		c0.6,0.8,1.5,1.3,2.6,1.3l0,0l0,0c1.1,0,1.9-0.3,2.4-0.8l0,0l0.3-0.3v-3.6h-2.9v-1.7H230.2z"/>
</g>
<g transform="translate(88.5,341)translate(162.25000000000003,2.2499999999999987)rotate(0)translate(-162.25000000000003,-2.2499999999999987) scale(1,1)">
	<g>
		<defs>
			<rect id="SVGID_1_" x="-79.5" y="-274.1" width="324.5" height="4.5"/>
		</defs>
		<clipPath id="SVGID_2_">
			<use xlink:href="#SVGID_1_"  style="overflow:visible;"/>
		</clipPath>
		<rect x="-79.5" y="-274.1" class="st3" width="324.5" height="4.5"/>
	</g>
	<g>
		<defs>
			<rect id="SVGID_3_" x="-79.5" y="-274.1" width="324.5" height="4.5"/>
		</defs>
		<clipPath id="SVGID_4_">
			<use xlink:href="#SVGID_3_"  style="overflow:visible;"/>
		</clipPath>
		<rect x="-79.5" y="-274.1" class="st4" width="324.5" height="4.5"/>
	</g>
</g>
<g transform="translate(150,116)translate(100,80)rotate(0)translate(-100,-80) scale(0.9523809523809523,0.9523809523809523)">
	
		<linearGradient id="SVGID_5_" gradientUnits="userSpaceOnUse" x1="-429.1525" y1="473.4224" x2="-429.1525" y2="472.7773" gradientTransform="matrix(123.7934 -120.7848 -152.8721 -97.8096 125726.6719 -5598.4458)">
		<stop  offset="0" style="stop-color:#00EFC8"/>
		<stop  offset="1" style="stop-color:#2C94EA"/>
	</linearGradient>
	<path class="st5" d="M343.4-25.5l-2-13.1c0.6-0.4,1-1,1-1.7c0-1.1-0.9-2-2.1-2c-0.1,0-0.2,0-0.2,0l-13.6-23.4
		c0.2-0.3,0.3-0.7,0.3-1.1c0-1.1-0.9-2-2.1-2c-0.4,0-0.7,0.1-1,0.3l-26.8-16c-0.2-0.9-1-1.6-2-1.6l0,0c-0.7,0-1.4,0.4-1.8,1
		l-24.9,0.9c-0.4-0.4-0.9-0.7-1.5-0.7c-0.8,0-1.6,0.5-1.9,1.3l-32.5,14.7c-0.2-0.1-0.5-0.2-0.8-0.2c-1.1,0-2,0.9-2,1.9l-9.2,9.7
		l-1.9,1.7c-0.1,0-0.3,0-0.4,0c-1.1,0-2.1,0.9-2.1,2c0,0.5,0.2,1.1,0.6,1.5l-4.9,17.3c-0.6,0.4-1,1-1,1.7c0,1,0.7,1.8,1.7,2
		l7.4,17.6c-0.3,0.4-0.5,0.8-0.5,1.3c0,1.1,0.9,2,2.1,2c0.6,0,1.2-0.3,1.6-0.8l17.4,3.9c0.1,1,1,1.7,2,1.7c0.6,0,1.3-0.3,1.6-0.8
		l12.6,3.4c0.3,0.7,1.1,1.2,1.9,1.2c1.1,0,2.1-0.9,2.1-2c0-0.1,0-0.1,0-0.2l5.6-4.8c0.3,0.1,0.6,0.2,0.9,0.2c0.7,0,1.3-0.3,1.7-0.9
		l6.8,2.3c0.3,0.9,1.1,1.5,2,1.5c0.1,0,0.3,0,0.4,0L291.1,8c0,0.1,0,0.2,0,0.4c0,1.1,0.9,2,2.1,2c0.1,0,0.3,0,0.4,0l6.4,5.5
		c0,0.2-0.1,0.3-0.1,0.5c0,1.1,0.9,2,2.1,2c1.1,0,2-0.8,2-1.9l5.8-1.2c0.4,0.5,1,0.8,1.6,0.8c1.1,0,2.1-0.9,2.1-2l0,0
		c0-1.1-0.9-2-2.1-2c-0.3,0-0.5,0-0.7,0.1l-3.6-7.5c0.2-0.3,0.3-0.7,0.3-1.1c0-0.1,0-0.3-0.1-0.4l2.3-3.4c0.2,0.1,0.4,0.1,0.6,0.1
		c0.7,0,1.3-0.3,1.7-0.9l7.4,0.5c0.3,0.8,1.1,1.2,1.9,1.2c1.1,0,2.1-0.9,2.1-2c0-0.1,0-0.1,0-0.2l4.2-6.5c0.5-0.1,0.9-0.3,1.2-0.7
		h3.9c0.3,0.7,1.1,1.2,1.9,1.2c1.1,0,2.1-0.9,2.1-2c0-0.6-0.2-1.1-0.7-1.5l7.1-10.5c1-0.1,1.8-1,1.8-2
		C344.9-24.5,344.3-25.3,343.4-25.5z"/>
	<path class="st6" d="M341.1-28.4l-2-13.1c0.6-0.4,1-1,1-1.7c0-1.1-0.9-2-2.1-2c-0.1,0-0.2,0-0.2,0l-13.6-23.4
		c0.2-0.3,0.3-0.7,0.3-1.1c0-1.1-0.9-2-2.1-2c-0.4,0-0.7,0.1-1,0.3l-26.8-16c-0.2-0.9-1-1.6-2-1.6l0,0c-0.7,0-1.4,0.4-1.8,1
		l-24.9,0.9c-0.4-0.4-0.9-0.7-1.5-0.7c-0.8,0-1.6,0.5-1.9,1.3l-32.5,14.7c-0.2-0.1-0.5-0.2-0.8-0.2c-1.1,0-2,0.9-2,1.9l-9.2,9.7
		l-1.9,1.7c-0.1,0-0.3,0-0.4,0c-1.1,0-2.1,0.9-2.1,2c0,0.5,0.2,1.1,0.6,1.5l-4.9,17.3c-0.6,0.4-1,1-1,1.7c0,1,0.7,1.8,1.7,2
		l7.4,17.6c-0.3,0.4-0.5,0.8-0.5,1.3c0,1.1,0.9,2,2.1,2c0.6,0,1.2-0.3,1.6-0.8l17.4,3.9c0.1,1,1,1.7,2,1.7c0.6,0,1.3-0.3,1.6-0.8
		l12.6,3.4c0.3,0.7,1.1,1.2,1.9,1.2c1.1,0,2.1-0.9,2.1-2c0-0.1,0-0.1,0-0.2l5.6-4.8c0.3,0.1,0.6,0.2,0.9,0.2c0.7,0,1.3-0.3,1.7-0.9
		l6.8,2.3c0.3,0.9,1.1,1.5,2,1.5c0.1,0,0.3,0,0.4,0L288.9,5c0,0.1,0,0.2,0,0.4c0,1.1,0.9,2,2.1,2c0.1,0,0.3,0,0.4,0l6.4,5.5
		c0,0.2-0.1,0.3-0.1,0.5c0,1.1,0.9,2,2.1,2c1.1,0,2-0.8,2-1.9l5.8-1.2c0.4,0.5,1,0.8,1.6,0.8c1.1,0,2.1-0.9,2.1-2c0,0,0,0,0,0
		c0-1.1-0.9-2-2.1-2c-0.3,0-0.5,0-0.7,0.1l-3.6-7.5c0.2-0.3,0.3-0.7,0.3-1.1c0-0.1,0-0.3-0.1-0.4l2.3-3.4c0.2,0.1,0.4,0.1,0.6,0.1
		c0.7,0,1.3-0.3,1.7-0.9l7.4,0.5c0.3,0.8,1.1,1.2,1.9,1.2c1.1,0,2.1-0.9,2.1-2c0-0.1,0-0.1,0-0.2l4.2-6.4c0.5-0.1,0.9-0.6,1.2-0.6
		h3.9c0.3,0.6,1.1,1.2,1.9,1.2c1.1,0,2.1-0.9,2.1-2c0-0.6-0.2-1.1-0.7-1.5l7.1-10.5c1-0.1,1.8-1,1.8-2
		C342.7-27.4,342-28.2,341.1-28.4z M324.2-24.2l-10.8-14.1l17.9,8.8l-1.8,4.4L324.2-24.2z M328.9-23.4l-1.4,3.4l-2.2-2.9L328.9-23.4
		z M332.7-28.8l5,2.5l-6.4,1L332.7-28.8z M331.9-30.8l-19.1-9.4c0,0,0-0.1,0-0.1c0,0,0-0.1,0-0.1l23.6-1.5L331.9-30.8z M304.5-20.1
		l-14,8.3c-0.2-0.2-0.5-0.4-0.9-0.5l-2.8-24.9c0.2,0,0.3-0.1,0.4-0.1l0,0l17.6,15.9C304.6-21,304.5-20.6,304.5-20.1
		C304.5-20.2,304.5-20.1,304.5-20.1z M279-27.6l6.3-9.4l2.7,24.2L279.3-25c0.2-0.3,0.3-0.7,0.3-1.1C279.6-26.7,279.4-27.2,279-27.6z
		 M236.3-48.8L251.4-64v0l7.1,13.7c-0.3,0.4-0.6,0.8-0.6,1.3c0,0.4,0.1,0.9,0.4,1.2l-10,15.7c0,0-0.1,0-0.1,0
		c-0.3,0-0.5,0.1-0.8,0.2l-11.2-14.3c0.3-0.4,0.5-0.8,0.5-1.3C236.7-48,236.6-48.5,236.3-48.8z M271.9-56.4l-10.7,5.9
		c-0.4-0.3-0.8-0.5-1.3-0.5c0,0-0.1-0.1-0.1-0.1l-7-13.5c0,0-0.1,0-0.1,0v0.2L271.9-56.4z M276.1-57l19.1-11.3h0L286-41
		c-0.2,0-0.4,0.1-0.6,0.2l-9.9-14.3c0.4-0.4,0.6-0.9,0.6-1.4C276.1-56.7,276.1-56.8,276.1-57z M275.2-58.2c-0.2-0.1-0.4-0.2-0.6-0.3
		l-3.1-8.9l23.3-2.5L275.2-58.2z M273.1-58.3c-0.2,0.1-0.4,0.3-0.6,0.5l-18.3-7.6l15.8-1.7L273.1-58.3z M259.7-47c0.1,0,0.2,0,0.3,0
		c0.2,0,0.5,0,0.5-0.1v0l15.3,19.9c0,0-0.1,0-0.1,0.1l-25.6-3.5c-0.1-0.3-0.3-0.6-0.5-0.8L259.7-47z M261.7-47.9
		c0.2-0.3,0.3-0.7,0.3-1.1c0-0.1,0.1-0.2,0.1-0.2l10.8-5.8v0c0,0.3,0.6,0.6,1.1,0.6c0,0,0,0,0,0l10.4,15c0,0.1,0,0.2,0,0.4
		c0,0.2,0,0.3,0.1,0.5l-7,10.5c-0.2,0-0.3,0-0.5,0.1L261.7-47.9z M288.4-38.2C288.4-38.2,288.4-38.3,288.4-38.2l20.2-1.3l-2.7,17.1
		L288.4-38.2z M288.5-39.8c-0.2-0.4-0.5-0.8-0.9-1l9-26.9l12.2,26.6L288.5-39.8z M298.2-68.1c0,0,0.1,0,0.1,0v0l18,11.8l-5.5,14
		c0,0,0,0,0,0c-0.3,0-0.5,0-0.7,0.1L298.2-68.1z M317.5-55.4l18.4,12L312.3-42L317.5-55.4z M322.3-67.7c0.1,0,0.2,0,0.2,0
		c0.2,0,0.5,0,0.5-0.1v0l13.1,22.6l-18.1-11.8L322.3-67.7z M320.4-69.4c0.1,0.4,0.2,0.7,0.5,1l-4.1,10.7l-17.6-11.5c0,0,0,0,0,0
		L320.4-69.4L320.4-69.4z M294.3-85.8l25,14.9L299-70.8c-0.3-0.7-1.1-1.1-1.8-1.1c-0.1,0-0.2,0-0.2,0l-3.1-13.5
		C294-85.5,294.1-85.7,294.3-85.8z M266.4-85.6l24.2-0.9v0c0.2,0.8,0.9,1.4,1.7,1.5l3.1,13.4l-29-13.9
		C266.4-85.5,266.4-85.5,266.4-85.6z M292.8-71.2L271-68.8l-5.4-15.3L292.8-71.2z M264.3-83.4l5.2,14.8l-15.9,1.7c0,0,0-0.1-0.1-0.1
		L264.3-83.4L264.3-83.4z M262.5-84.8c0.1,0.2,0.3,0.4,0.5,0.6L252.3-68c-0.2-0.1-0.4-0.1-0.6-0.1c-0.8,0-1.5,0.4-1.8,1.1l-18.7-3.3
		c0-0.1-0.1-0.2-0.1-0.3L262.5-84.8z M230.6-68.8L230.6-68.8l19,3.3c0.1,0.2,0.2,0.4,0.4,0.6l-15.2,15.4c-0.1,0-0.1,0-0.2,0
		c-0.1,0-0.3,0-0.4,0c-0.1-0.6-0.2-1.1-0.4-1.9c-0.4-2.2-1-5.1-1.6-8c-0.8-3.7-1.6-6.8-2-8.9C230.4-68.4,230.6-68.6,230.6-68.8z
		 M226.7-30.5l6.9-14.9l3.8,24.9l-10-7.4c0.1-0.3,0.2-0.6,0.2-0.9C227.7-29.5,227.3-30.2,226.7-30.5z M225.2-30.8
		c-0.3,0.1-0.6,0.3-0.9,0.5l-11.9-5.8c0-0.1,0-0.1,0-0.2l20.3-10.5L225.2-30.8z M218.9-59.2l9.5-8.8c0.2,0.1,0.3,0.1,0.5,0.1
		c0.4,2.1,1.1,5.1,1.8,8.8c0.6,2.9,1.2,5.7,1.6,7.9c0.1,0.6,0.2,1,0.3,1.6l-15.1-7.3c0-0.2-0.1-0.4-0.2-0.6L218.9-59.2z M215.6-54.5
		c0.7,0,1.3-0.3,1.7-0.8l14.8,7.2l-20.5,10.6c-0.2-0.2-0.4-0.3-0.7-0.3L215.6-54.5z M218.8-17.2c0,0-0.1,0-0.1,0l-7.2-17.2
		c0.1-0.1,0.3-0.2,0.3-0.3v0l11.9,5.7c0,0,0,0.1,0,0.1c0,0.5,0.2,0.9,0.5,1.3L218.8-17.2z M238.3-11.5l-17.4-3.9
		c-0.1-0.5-0.3-1-0.7-1.3l5.2-10.2c0.1,0,0,0,0.1,0c0.2,0,0.5,0,0.5-0.1v0l11.6,8.5l1.1,6.5C238.5-11.8,238.4-11.6,238.3-11.5z
		 M242-10.5c-0.1-0.9-0.8-1.6-1.7-1.7l-0.7-4.8L252-7.8L242-10.5z M254.5-7.8l-15.3-11.4l-3.9-25.6l11,14c-0.1,0.2-0.2,0.5-0.2,0.8
		c0,1,0.7,1.8,1.7,2L255-8.2C254.8-8.1,254.7-8,254.5-7.8z M257.4-8.1c-0.3-0.2-0.5-0.3-0.9-0.4l-6.6-18.5l12.7,13.6c0,0,0,0,0,0
		c0,0.2,0,0.4,0.1,0.6L257.4-8.1z M265.4-15.2c-0.2-0.1-0.5-0.1-0.7-0.1c-0.5,0-1,0.3-1.4,0.6L250-28.9c0,0,0.1,0,0.1,0v-0.3
		l25.3,3.5L265.4-15.2z M274.2-12.2c-0.3,0.2-0.6,0.4-0.8,0.8l-6.6-2.2c0-0.2-0.1-0.4-0.2-0.6l9.6-10.1L274.2-12.2z M275.7-12.4
		l1.9-11.7c0.1,0,0.2,0,0.3,0v0l9.1,12.9l-10,0.4C277-11.6,276.5-12.2,275.7-12.4z M276.9-9.4C276.9-9.4,276.9-9.4,276.9-9.4
		l10.2-0.4v0c0.2,0.8,0.9,1.4,1.7,1.5l0.8,11.8L276.9-9.4z M291.1,3.4l-0.8-11.6l10.8,8.3c0,0.1,0,0.3,0,0.4c0,0,0,0.1,0,0.1
		L292.5,4C292.1,3.7,291.6,3.4,291.1,3.4z M299.4,11.3c-0.3,0-0.5,0.1-0.7,0.3l-5-4.3l5.2,0.9c0.1,0.5,0.4,1,0.8,1.3L299.4,11.3z
		 M299.2,6.7L293,5.6c0-0.1,0-0.1,0-0.2l8.9-3.4c0.1,0.1,0.2,0.1,0.2,0.2l-1.4,3.7C300.1,5.9,299.5,6.3,299.2,6.7z M301.3,12
		c-0.1-0.1-0.2-0.2-0.4-0.3l0.2-1.7c0.5-0.1,1-0.3,1.3-0.7l4.5,1.6L301.3,12z M306.8,9.2l-3.9-1.4c-0.1-0.5-0.3-1-0.7-1.4l1.5-3.9
		c0,0-0.1,0-0.1,0v0L306.8,9.2z M306.1-5.2c0,0.3,0.1,0.6,0.2,0.9l-2.1,3.1c-0.3-0.2-0.7-0.3-1-0.3c-0.4,0-0.8,0.1-1.2,0.4l-11-8.5
		c0.1-0.2,0.1-0.5,0.1-0.7c0,0,0-0.1,0-0.1l14-8.3c0.2,0.2,0.5,0.4,0.9,0.5l1,11.4C306.4-6.5,306.1-5.9,306.1-5.2z M310-38.5
		L310-38.5c0.2,0.1,0.5,0.1,0.8,0.1c0.2,0,0.4,0,0.6-0.1l11.2,14.5L308-21.6c-0.2-0.2-0.4-0.3-0.6-0.4L310-38.5z M317.3-5.1
		l-7.1-0.5c-0.2-0.8-0.8-1.5-1.7-1.6l-1-11.2c0,0,0,0,0.1,0v0l10,12.9C317.4-5.4,317.3-5.2,317.3-5.1z M320.3-6
		c-0.3-0.2-0.8-0.4-1.2-0.4c-0.1,0-0.2,0-0.3,0l-9.9-12.8l14,6.3c0,0.6,0.3,1.1,0.8,1.5L320.3-6z M325.5-14.9
		c-0.1,0-0.3-0.1-0.5-0.1c-0.6,0-1.2,0.3-1.6,0.7l-13.6-6.1l13.7-2.2v0l3.3,4.2L325.5-14.9z M330.4-12.9h-3.4c0-0.6-0.1-0.8-0.3-1
		l1.1-2.9l2.7,3.6C330.5-13.2,330.5-13.5,330.4-12.9z M332.2-14.4c-0.2,0-0.3,0-0.5,0.1l-3.2-4.2l2.1-5.1l8.6-1.3v0c0,0,0,0,0.1,0.1
		L332.2-14.4z M338.8-27.4l-5.5-2.7l4.3-10.8v0l2,12.7C339.3-28,339-27.8,338.8-27.4z"/>
</g>
</svg>
