<?xml version="1.0" encoding="utf-8"?>
<!-- Generator: Adobe Illustrator 23.0.1, SVG Export Plug-In . SVG Version: 6.00 Build 0)  -->
<svg version="1.1" id="Layer_1" xmlns="http://www.w3.org/2000/svg" xmlns:xlink="http://www.w3.org/1999/xlink" x="0px" y="0px"
	 viewBox="0 0 480 139" style="enable-background:new 0 0 480 139;" xml:space="preserve">
<style type="text/css">
	.st0{fill:none;}
	.st1{fill:#FFFFFF;}
	.st2{font-family:'ArialMT';}
	.st3{font-size:54px;}
	.st4{letter-spacing:21;}
	.st5{enable-background:new    ;}
	.st6{letter-spacing:20;}
	.st7{font-size:55px;}
</style>
<path d="M448.1-1l-9.6,17.2l-8.4,15L369.9,139H-1V-1H448.1z"/>
<path class="st0" d="M-1,139h479.9l0,0H-1L-1,139z"/>
<text transform="matrix(1 0 0 1 17.692 112.015)" class="st1 st2 st3 st4">   </text>
<text transform="matrix(1 0 0 1 125.692 112.015)" class="st5"><tspan x="0" y="0" class="st1 st2 st3 st6">	</tspan><tspan x="36" y="0" class="st1 st2 st3">Pereira</tspan></text>
<text transform="matrix(1 0 0 1 17.6919 60.2329)" class="st1 st2 st7">Pedro Martins</text>
<path class="st0" d="M382.4,116.4L430,31.2l8.4-15 M369.8,139L369.8,139l-7.8,14"/>
<path class="st0" d="M457-17l-8.9,16l-9.6,17.2l-8.4,15L369.9,139l0,0l-8.9,16"/>
</svg>
