<?xml version="1.0" encoding="utf-8"?>
<!-- Generator: Adobe Illustrator 23.0.1, SVG Export Plug-In . SVG Version: 6.00 Build 0)  -->
<svg version="1.1" id="Layer_1" xmlns="http://www.w3.org/2000/svg" xmlns:xlink="http://www.w3.org/1999/xlink" x="0px" y="0px"
	 viewBox="0 0 480 139" style="enable-background:new 0 0 480 139;" xml:space="preserve">
<style type="text/css">
	.st0{fill:none;}
	.st1{fill:#FFFFFF;}
	.st2{clip-path:url(#SVGID_2_);fill:#FFFFFF;}
	.st3{clip-path:url(#SVGID_4_);fill:none;}
</style>
<path class="st0" d="M-1,139h479.9l0,0H-1L-1,139z"/>
<path class="st0" d="M382.4,116.4L430,31.2l8.4-15 M369.8,139L369.8,139l-7.8,14"/>
<path class="st0" d="M457-17l-8.9,16l-9.6,17.2l-8.4,15L369.9,139l0,0l-8.9,16"/>
<rect x="-0.4" y="-1" class="st0" width="480.9" height="141"/>
<g transform="translate(82.26168060302601,286.60221920775865)translate(167.34375,31.5)rotate(0)translate(-167.34375,-31.5)">
	<path class="st1" d="M73.1-234.2h-6.9v13.4h-4.3v-34.1h10.9l0,0c3.2,0,5.7,1,7.5,2.9l0,0l0,0c1.8,1.9,2.7,4.4,2.7,7.6l0,0l0,0
		c0,3.3-0.9,5.8-2.6,7.6l0,0l0,0C78.7-235.2,76.3-234.3,73.1-234.2L73.1-234.2z M66.2-251.3v13.4h6.6l0,0c1.9,0,3.4-0.6,4.4-1.7l0,0
		l0,0c1-1.1,1.5-2.8,1.5-4.9l0,0l0,0c0-2-0.5-3.7-1.6-4.9l0,0l0,0c-1-1.2-2.5-1.9-4.3-1.9l0,0H66.2z M104.9-240.3v3.7H92.8v12.1
		h14.1v3.7H88.6v-34.1h18.1v3.7H92.9v11h12V-240.3z M120-220.9h-7.6V-255h8.1l0,0c4,0,7.1,1.2,9.3,3.7l0,0l0,0
		c2.2,2.5,3.3,6,3.3,10.5l0,0v5.7l0,0c0,4.5-1.1,8-3.4,10.5l0,0l0,0C127.5-222.1,124.3-220.9,120-220.9L120-220.9z M120.5-251.3
		h-3.8v26.7h3.4l0,0c3,0,5.2-0.9,6.6-2.6l0,0l0,0c1.4-1.7,2.1-4.3,2.1-7.7l0,0v-6l0,0c0-3.6-0.7-6.2-2.1-7.9l0,0l0,0
		C125.4-250.5,123.3-251.3,120.5-251.3L120.5-251.3z M156.2-220.9l-6.1-13.8h-6v13.8h-4.3V-255h9.6l0,0c3.3,0,5.9,0.9,7.6,2.6l0,0
		l0,0c1.7,1.7,2.6,4.3,2.6,7.6l0,0l0,0c0,2.1-0.5,3.9-1.4,5.5l0,0l0,0c-0.9,1.6-2.2,2.8-3.9,3.6l0,0l6.6,14.5v0.3L156.2-220.9
		L156.2-220.9z M144.1-251.3v12.9h5.2l0,0c1.8,0,3.2-0.6,4.3-1.7l0,0l0,0c1.1-1.2,1.6-2.7,1.6-4.6l0,0l0,0c0-4.4-2-6.6-6-6.6l0,0
		H144.1z M187.5-241.1v6.2l0,0c0,4.7-1,8.2-3,10.8l0,0l0,0c-2,2.5-4.8,3.8-8.5,3.8l0,0l0,0c-3.5,0-6.3-1.2-8.3-3.7l0,0l0,0
		c-2-2.4-3.1-5.9-3.2-10.4l0,0v-6.4l0,0c0-4.6,1-8.1,3-10.7l0,0l0,0c2-2.6,4.8-3.9,8.4-3.9l0,0l0,0c3.6,0,6.4,1.2,8.4,3.7l0,0l0,0
		C186.4-249.3,187.4-245.7,187.5-241.1L187.5-241.1z M183.2-234.5v-6.4l0,0c0-3.6-0.6-6.3-1.8-8l0,0l0,0c-1.2-1.8-3-2.6-5.4-2.6l0,0
		l0,0c-2.4,0-4.1,0.9-5.3,2.7l0,0l0,0c-1.2,1.8-1.8,4.4-1.8,7.9l0,0v6.1l0,0c0,3.5,0.6,6.1,1.8,8l0,0l0,0c1.2,1.8,3,2.7,5.4,2.7l0,0
		l0,0c2.4,0,4.2-0.8,5.3-2.5l0,0l0,0C182.5-228.4,183.1-231,183.2-234.5L183.2-234.5z M205.1-255h5.5l8.9,27.9l8.9-27.9h5.5v34.1
		h-4.3v-13.3l0.4-13.3l-8.9,26.6h-3.3l-8.8-26.5l0.4,13.2v13.3h-4.3V-255z M259.9-220.9l-2.7-8.9h-11.5l-2.6,8.9h-4.4l11-34.1h3.7
		l11,34.1H259.9z M251.5-249l-4.6,15.5h9.3L251.5-249z M285.4-220.9l-6.1-13.8h-6v13.8H269V-255h9.6l0,0c3.3,0,5.9,0.9,7.6,2.6l0,0
		l0,0c1.7,1.7,2.6,4.3,2.6,7.6l0,0l0,0c0,2.1-0.5,3.9-1.4,5.5l0,0l0,0c-0.9,1.6-2.3,2.8-4,3.6l0,0l6.6,14.5v0.3L285.4-220.9
		L285.4-220.9z M273.3-251.3v12.9h5.2l0,0c1.8,0,3.2-0.6,4.3-1.7l0,0l0,0c1.1-1.2,1.6-2.7,1.6-4.6l0,0l0,0c0-4.4-2-6.6-5.9-6.6l0,0
		H273.3z M314.4-255v3.7h-9v30.4h-4.3v-30.4h-9v-3.7H314.4z M323.9-255v34.1h-4.3V-255H323.9z M353.7-255v34.1h-4.3l-13.7-26.3v26.3
		h-4.3V-255h4.3l13.7,26.4V-255L353.7-255L353.7-255z M376.1-229.5L376.1-229.5L376.1-229.5c0-1.7-0.5-3-1.4-3.9l0,0l0,0
		c-0.9-0.9-2.6-1.8-5-2.7l0,0l0,0c-2.4-0.9-4.2-1.8-5.5-2.7l0,0l0,0c-1.3-0.9-2.2-2-2.9-3.2l0,0l0,0c-0.6-1.2-1-2.6-1-4.2l0,0l0,0
		c0-2.7,0.9-4.9,2.7-6.7l0,0l0,0c1.8-1.7,4.2-2.6,7.1-2.6l0,0l0,0c2,0,3.8,0.4,5.3,1.3l0,0l0,0c1.6,0.9,2.8,2.1,3.6,3.7l0,0l0,0
		c0.8,1.6,1.3,3.3,1.3,5.3l0,0H376l0,0c0-2.1-0.5-3.7-1.5-4.9l0,0l0,0c-1-1.2-2.5-1.7-4.4-1.7l0,0l0,0c-1.7,0-3.1,0.5-4,1.5l0,0l0,0
		c-1,1-1.4,2.3-1.4,4.1l0,0l0,0c0,1.4,0.5,2.6,1.5,3.6l0,0l0,0c1,1,2.6,1.8,4.8,2.6l0,0l0,0c3.4,1.1,5.8,2.5,7.2,4.1l0,0l0,0
		c1.4,1.6,2.2,3.8,2.2,6.4l0,0l0,0c0,2.8-0.9,5-2.7,6.6l0,0l0,0c-1.8,1.7-4.2,2.5-7.3,2.5l0,0l0,0c-2,0-3.8-0.4-5.5-1.3l0,0l0,0
		c-1.7-0.9-3-2.1-4-3.7l0,0l0,0c-1-1.6-1.4-3.4-1.4-5.4l0,0h4.3l0,0c0,2.1,0.6,3.7,1.8,4.9l0,0l0,0c1.2,1.2,2.8,1.8,4.8,1.8l0,0l0,0
		c1.9,0,3.3-0.5,4.3-1.4l0,0l0,0C375.6-226.5,376.1-227.8,376.1-229.5z"/>
</g>
<g transform="translate(88.5,341)translate(162.25000000000003,2.2499999999999987)rotate(0)translate(-162.25000000000003,-2.2499999999999987) scale(1,1)">
	<g>
		<g>
			<defs>
				<rect id="SVGID_1_" x="54.6" y="-264.7" width="324.5" height="4.5"/>
			</defs>
			<clipPath id="SVGID_2_">
				<use xlink:href="#SVGID_1_"  style="overflow:visible;"/>
			</clipPath>
			<rect x="54.6" y="-264.7" class="st2" width="324.5" height="4.5"/>
		</g>
	</g>
	<g>
		<g>
			<defs>
				<rect id="SVGID_3_" x="54.6" y="-264.7" width="324.5" height="4.5"/>
			</defs>
			<clipPath id="SVGID_4_">
				<use xlink:href="#SVGID_3_"  style="overflow:visible;"/>
			</clipPath>
			<rect x="54.6" y="-264.7" class="st3" width="324.5" height="4.5"/>
		</g>
	</g>
</g>
<g transform="translate(88.86793060302598,354)translate(160.7375,14.5)rotate(0)translate(-160.7375,-14.5)">
	<path class="st1" d="M64.9-247.9L64.9-247.9L64.9-247.9c0-0.8-0.2-1.4-0.6-1.8l0,0l0,0c-0.4-0.4-1.2-0.8-2.3-1.2l0,0l0,0
		c-1.1-0.4-1.9-0.8-2.5-1.2l0,0l0,0c-0.6-0.4-1-0.9-1.3-1.5l0,0l0,0c-0.3-0.6-0.4-1.2-0.4-1.9l0,0l0,0c0-1.2,0.4-2.3,1.2-3.1l0,0
		l0,0c0.8-0.8,1.9-1.2,3.3-1.2l0,0l0,0c0.9,0,1.7,0.2,2.5,0.6l0,0l0,0c0.7,0.4,1.3,1,1.7,1.7l0,0l0,0c0.4,0.7,0.6,1.5,0.6,2.4l0,0
		h-2l0,0c0-1-0.2-1.7-0.7-2.2l0,0l0,0c-0.5-0.5-1.1-0.8-2-0.8l0,0l0,0c-0.8,0-1.4,0.2-1.8,0.7l0,0l0,0c-0.4,0.4-0.7,1.1-0.7,1.9l0,0
		l0,0c0,0.7,0.2,1.2,0.7,1.6l0,0l0,0c0.5,0.4,1.2,0.8,2.2,1.2l0,0l0,0c1.5,0.5,2.6,1.1,3.3,1.9l0,0l0,0c0.7,0.7,1,1.7,1,2.9l0,0l0,0
		c0,1.3-0.4,2.3-1.2,3l0,0l0,0c-0.8,0.8-1.9,1.1-3.4,1.1l0,0l0,0c-0.9,0-1.8-0.2-2.5-0.6l0,0l0,0c-0.8-0.4-1.4-1-1.8-1.7l0,0l0,0
		c-0.4-0.7-0.7-1.5-0.7-2.5l0,0h2l0,0c0,1,0.3,1.7,0.8,2.3l0,0l0,0c0.5,0.5,1.3,0.8,2.2,0.8l0,0l0,0c0.9,0,1.5-0.2,1.9-0.7l0,0l0,0
		C64.7-246.6,64.9-247.2,64.9-247.9z M84.1-253.3v2.8l0,0c0,2.1-0.5,3.8-1.4,4.9l0,0l0,0c-0.9,1.1-2.2,1.7-3.9,1.7l0,0l0,0
		c-1.6,0-2.9-0.6-3.8-1.7l0,0l0,0c-0.9-1.1-1.4-2.7-1.5-4.8l0,0v-2.9l0,0c0-2.1,0.5-3.7,1.4-4.9l0,0l0,0c0.9-1.2,2.2-1.8,3.9-1.8
		l0,0l0,0c1.6,0,2.9,0.6,3.9,1.7l0,0l0,0C83.6-257,84-255.4,84.1-253.3L84.1-253.3z M82.1-250.2v-2.9l0,0c0-1.7-0.3-2.9-0.8-3.7l0,0
		l0,0c-0.5-0.8-1.4-1.2-2.5-1.2l0,0l0,0c-1.1,0-1.9,0.4-2.4,1.2l0,0l0,0c-0.6,0.8-0.8,2-0.8,3.6l0,0v2.8l0,0c0,1.6,0.3,2.8,0.8,3.7
		l0,0l0,0c0.6,0.8,1.4,1.3,2.5,1.3l0,0l0,0c1.1,0,1.9-0.4,2.5-1.2l0,0l0,0C81.8-247.5,82.1-248.7,82.1-250.2L82.1-250.2z
		 M98.8-252.6v1.7h-5.3v6.9h-2v-15.6h8.1v1.7h-6.2v5.4h5.4V-252.6z M115.6-259.6v1.7h-4.1v13.9h-2v-13.9h-4.1v-1.7H115.6z
		 M123.4-259.6l1.9,10.7l0.2,1.8l0.3-1.6l2.5-10.9h1.7l2.4,10.9l0.3,1.6l0.2-1.8l1.9-10.7h2l-3.1,15.6h-1.8l-2.6-11.4l-0.2-0.9
		l-0.2,0.9l-2.6,11.4h-1.8l-3.1-15.6H123.4z M152-244l-1.2-4.1h-5.3l-1.2,4.1h-2l5-15.6h1.7l5,15.6H152z M148.1-256.9l-2.1,7.1h4.3
		L148.1-256.9z M168.1-244l-2.8-6.3h-2.8v6.3h-2v-15.6h4.4l0,0c1.5,0,2.7,0.4,3.5,1.2l0,0l0,0c0.8,0.8,1.2,2,1.2,3.5l0,0l0,0
		c0,1-0.2,1.8-0.6,2.5l0,0l0,0c-0.4,0.7-1,1.3-1.8,1.6l0,0l3,6.6v0.1L168.1-244L168.1-244z M162.5-257.9v5.9h2.4l0,0
		c0.8,0,1.5-0.3,2-0.8l0,0l0,0c0.5-0.5,0.7-1.2,0.7-2.1l0,0l0,0c0-2-0.9-3-2.7-3l0,0H162.5z M184.1-252.9v1.7h-5.5v5.5h6.4v1.7h-8.4
		v-15.6h8.3v1.7h-6.3v5L184.1-252.9L184.1-252.9z M208.9-252.9v1.7h-5.5v5.5h6.4v1.7h-8.4v-15.6h8.3v1.7h-6.3v5L208.9-252.9
		L208.9-252.9z M226.9-259.6v15.6h-2l-6.3-12.1v12.1h-2v-15.6h2l6.3,12.1v-12.1H226.9z M244.5-251.8v5.9l-0.3,0.4l0,0
		c-1,1.1-2.4,1.7-4.3,1.7l0,0l0,0c-1.7,0-3-0.6-4-1.7l0,0l0,0c-1-1.1-1.5-2.7-1.5-4.8l0,0v-3.1l0,0c0-2.2,0.4-3.8,1.3-4.9l0,0l0,0
		c0.9-1.1,2.2-1.6,3.9-1.6l0,0l0,0c1.5,0,2.6,0.4,3.5,1.3l0,0l0,0c0.8,0.8,1.3,2,1.4,3.6l0,0h-2l0,0c-0.1-1-0.4-1.7-0.8-2.3l0,0l0,0
		c-0.5-0.5-1.2-0.8-2.1-0.8l0,0l0,0c-1.1,0-1.9,0.4-2.5,1.1l0,0l0,0c-0.5,0.7-0.8,1.9-0.8,3.5l0,0v3.2l0,0c0,1.6,0.3,2.8,0.9,3.6
		l0,0l0,0c0.6,0.8,1.5,1.3,2.6,1.3l0,0l0,0c1.1,0,1.9-0.3,2.4-0.8l0,0l0.3-0.3v-3.6h-2.9v-1.7L244.5-251.8L244.5-251.8z
		 M254.2-259.6v15.6h-2v-15.6H254.2z M272.3-259.6v15.6h-2l-6.3-12.1v12.1h-2v-15.6h2l6.3,12.1v-12.1H272.3z M287.6-252.9v1.7h-5.5
		v5.5h6.5v1.7h-8.4v-15.6h8.3v1.7h-6.3v5L287.6-252.9L287.6-252.9z M302.9-252.9v1.7h-5.5v5.5h6.4v1.7h-8.4v-15.6h8.3v1.7h-6.3v5
		L302.9-252.9L302.9-252.9z M318.2-244l-2.8-6.3h-2.8v6.3h-2v-15.6h4.4l0,0c1.5,0,2.7,0.4,3.5,1.2l0,0l0,0c0.8,0.8,1.2,2,1.2,3.5
		l0,0l0,0c0,1-0.2,1.8-0.6,2.5l0,0l0,0c-0.4,0.7-1,1.3-1.8,1.6l0,0l3,6.6v0.1L318.2-244L318.2-244z M312.7-257.9v5.9h2.4l0,0
		c0.8,0,1.5-0.3,2-0.8l0,0l0,0c0.5-0.5,0.7-1.2,0.7-2.1l0,0l0,0c0-2-0.9-3-2.7-3l0,0H312.7z M328.8-259.6v15.6h-2v-15.6H328.8z
		 M346.9-259.6v15.6h-2l-6.3-12.1v12.1h-2v-15.6h2l6.3,12.1v-12.1H346.9z M364.5-251.8v5.9l-0.3,0.4l0,0c-1,1.1-2.4,1.7-4.3,1.7l0,0
		l0,0c-1.7,0-3-0.6-4-1.7l0,0l0,0c-1-1.1-1.5-2.7-1.5-4.8l0,0v-3.1l0,0c0-2.2,0.4-3.8,1.3-4.9l0,0l0,0c0.9-1.1,2.2-1.6,3.9-1.6l0,0
		l0,0c1.5,0,2.7,0.4,3.5,1.3l0,0l0,0c0.8,0.8,1.3,2,1.4,3.6l0,0h-2l0,0c-0.1-1-0.3-1.7-0.8-2.3l0,0l0,0c-0.5-0.5-1.2-0.8-2.1-0.8
		l0,0l0,0c-1.1,0-1.9,0.4-2.5,1.1l0,0l0,0c-0.5,0.7-0.8,1.9-0.8,3.5l0,0v3.2l0,0c0,1.6,0.3,2.8,0.9,3.6l0,0l0,0
		c0.6,0.8,1.5,1.3,2.6,1.3l0,0l0,0c1.1,0,1.9-0.3,2.4-0.8l0,0l0.3-0.3v-3.6h-2.9v-1.7L364.5-251.8L364.5-251.8z"/>
</g>
<path class="st1" d="M31.5,22.1c5.6,0,10.9,0.3,16.1-0.1c3.3-0.2,5.1,1,6.9,4c17,28.3,34.1,56.5,51.2,84.7c0.3,0.5,0.6,1,1,1.7
	c-0.6,0-1,0.1-1.4,0.1c-5.9,0-11.8,0-17.7,0c-0.9,0-1.5-0.3-2-1.2c-5.1-8.5-10.3-17-15.4-25.4c-0.3-0.5-0.6-0.9-1-1.5
	c-0.3,0.5-0.6,0.9-0.9,1.4c-5.2,8.6-10.4,17.1-15.6,25.7c-0.3,0.5-1,1.1-1.6,1.1c-6.2,0.1-12.4,0-18.6,0c-0.2,0-0.4,0-0.9-0.1
	c0.4-0.6,0.6-1.1,0.9-1.6c8.5-14.1,17-28.1,25.6-42.2c0.6-1,0.6-1.7,0-2.8c-8.6-14-17.1-28.1-25.6-42.2
	C32.1,23.3,31.9,22.8,31.5,22.1z"/>
<path class="st1" d="M4.1,112.4c0.3-0.6,0.6-1.1,0.9-1.6c8.5-14,16.9-28,25.4-41.9c0.8-1.3,0.7-2-0.1-3.3c-8.5-14-17-28-25.5-42
	c-0.2-0.4-0.5-0.8-0.8-1.4c0.6,0,1-0.1,1.5-0.1c5.9,0,11.7,0,17.6,0c1,0,1.6,0.3,2.1,1.2C33.9,37.5,42.5,51.8,51.2,66
	c0.5,0.9,0.6,1.5,0,2.4C42.5,82.7,33.9,97,25.2,111.3c-0.3,0.5-1,1.1-1.6,1.1c-6.2,0.1-12.5,0-18.7,0C4.7,112.5,4.5,112.4,4.1,112.4
	z"/>
<path class="st1" d="M74.8,35.4c15.3,0,30.4,0,45.6,0c0,1.4,0,2.8,0,4.2c0,3.1,0,6.3,0,9.4c0,1-0.2,1.4-1.2,1.4
	c-11.5,0-22.9,0-34.4-0.1c-0.5,0-1.1-0.3-1.4-0.7C80.7,45,77.8,40.3,74.8,35.4z"/>
<path class="st1" d="M88.7,71.1c0.6,0,1.1-0.1,1.5-0.1c9.6,0,19.2,0,28.7,0c1.1,0,1.5,0.3,1.5,1.6c-0.1,4.4,0,8.9,0,13.4
	c-0.5,0-1,0.1-1.4,0.1c-6.7,0-13.5,0-20.2,0c-0.9,0-1.5-0.3-2-1.2c-2.4-4.2-4.9-8.3-7.4-12.4C89.3,72.1,89.1,71.7,88.7,71.1z"/>
</svg>
